<?xml version="1.0" encoding="utf-8"?>
<!-- Generator: Adobe Illustrator 24.1.0, SVG Export Plug-In . SVG Version: 6.00 Build 0)  -->
<svg version="1.1" id="Layer_1" xmlns="http://www.w3.org/2000/svg" xmlns:xlink="http://www.w3.org/1999/xlink" x="0px" y="0px"
	 viewBox="0 0 512 512" style="enable-background:new 0 0 512 512;" xml:space="preserve">
<style type="text/css">
	.st0{opacity:0.8;}
	.st1{fill:#FFFFFF;}
</style>
<g class="st0">
	<path class="st1" d="M484.5,69.3H353.4C339.3,29,301,0,256,0c-16.4,0-32.1,3.7-46.6,11.1c-8.6,4.4-1.9,17.8,6.8,13.4
		C228.6,18.2,242,15,256,15c48.6,0,88.1,39.5,88.1,88.1s-39.5,88.1-88.1,88.1s-88.1-39.5-88.1-88.1c0-21,7.5-41.3,21.2-57.3
		c6.3-7.4-5.1-17.1-11.4-9.8c-8.4,9.8-14.8,21.1-19,33.2H27.5C12.3,69.3,0,81.6,0,96.8v387.7C0,499.7,12.3,512,27.5,512h457
		c15.2,0,27.5-12.3,27.5-27.5V160V96.8C512,81.6,499.7,69.3,484.5,69.3z M484.5,84.3c6.9,0,12.5,5.6,12.5,12.5v55.7H346.4
		c11.3-20.7,15.2-45,10.9-68.2H484.5z M27.5,84.3h127.2c-4.3,23.2-0.5,47.5,10.9,68.2H15V96.8C15,89.9,20.6,84.3,27.5,84.3
		L27.5,84.3z M484.5,497h-457c-6.9,0-12.5-5.6-12.5-12.5v-317h160.6c18.9,23.6,47.9,38.7,80.4,38.7c32.5,0,61.6-15.2,80.5-38.8
		c0.4,0.1,160.5,0.1,160.5,0.1v317C497,491.4,491.4,497,484.5,497z"/>
	<path class="st1" d="M415.2,362.3H96.8c-55.5,0-55.6,86.2,0,86.2h318.3C470.6,448.5,470.7,362.3,415.2,362.3L415.2,362.3z
		 M415.2,433.5H96.8c-36.2,0-36.4-56.2,0-56.2h318.3C451.3,377.3,451.6,433.5,415.2,433.5z"/>
	<path class="st1" d="M121.2,397.9c-9.7,0-9.7,15,0,15C130.8,412.9,130.8,397.9,121.2,397.9z"/>
	<path class="st1" d="M159.7,397.9c-9.7,0-9.7,15,0,15C169.3,412.9,169.3,397.9,159.7,397.9z"/>
	<path class="st1" d="M198.2,397.9c-9.7,0-9.7,15,0,15C207.9,412.9,207.9,397.9,198.2,397.9z"/>
	<path class="st1" d="M236.7,397.9c-9.7,0-9.7,15,0,15C246.4,412.9,246.4,397.9,236.7,397.9z"/>
	<path class="st1" d="M275.3,397.9c-9.7,0-9.7,15,0,15C284.9,412.9,284.9,397.9,275.3,397.9z"/>
	<path class="st1" d="M313.8,397.9c-9.7,0-9.7,15,0,15C323.4,412.9,323.5,397.9,313.8,397.9z"/>
	<path class="st1" d="M352.3,397.9c-9.7,0-9.7,15,0,15C362,412.9,362,397.9,352.3,397.9z"/>
	<path class="st1" d="M390.8,397.9c-9.7,0-9.7,15,0,15C400.5,412.9,400.5,397.9,390.8,397.9z"/>
	<path class="st1" d="M415.2,249.1H96.8c-55.5,0-55.6,86.2,0,86.2h252.5c9.7,0,9.7-15,0-15H96.8c-36.2,0-36.4-56.2,0-56.2h318.3
		c36.2,0,36.4,56.2,0,56.2h-25.9c-9.7,0-9.7,15,0,15h25.9C470.6,335.3,470.7,249.1,415.2,249.1L415.2,249.1z"/>
	<path class="st1" d="M256,42.1c-14.7,0-26.7,12-26.7,26.7v17.7c-8.8,0.9-15.7,8.4-15.7,17.4v38.7c0,9.6,7.9,17.5,17.5,17.5h49.7
		c9.6,0,17.5-7.9,17.5-17.5v-38.7c0-9-6.9-16.5-15.7-17.4V68.8C282.7,54.1,270.7,42.1,256,42.1L256,42.1z M244.3,68.8
		c0-14.6,23.3-15.3,23.3,0v17.6h-23.3V68.8z M283.3,142.6c0,1.4-1.1,2.5-2.5,2.5h-49.7c-1.4,0-2.5-1.1-2.5-2.5v-38.7
		c0-1.4,1.1-2.5,2.5-2.5h49.7c1.4,0,2.5,1.1,2.5,2.5V142.6z"/>
	<path class="st1" d="M398.4,292.2c0-4.1-3.4-7.5-7.5-7.5H121.1c-9.7,0-9.7,15,0,15h269.7C395,299.7,398.4,296.4,398.4,292.2z"/>
	<path class="st1" d="M256,115.7c-9.7,0-9.7,15,0,15C265.7,130.7,265.7,115.7,256,115.7z"/>
</g>
</svg>
