<?xml version="1.0" encoding="utf-8"?>
<!-- Generator: Adobe Illustrator 24.1.0, SVG Export Plug-In . SVG Version: 6.00 Build 0)  -->
<svg version="1.1" id="Layer_1" xmlns="http://www.w3.org/2000/svg" xmlns:xlink="http://www.w3.org/1999/xlink" x="0px" y="0px"
	 viewBox="0 0 512 512" style="enable-background:new 0 0 512 512;" xml:space="preserve">
<style type="text/css">
	.st0{opacity:0.78;}
	.st1{fill:#FFFFFF;}
</style>
<g transform="translate(-1 -1)" class="st0">
	<g>
		<g>
			<path class="st1" d="M508.2,249.2c0.2-0.2,0.4-0.5,0.6-0.8c0.2-0.3,0.5-0.6,0.7-0.9c0.2-0.3,0.4-0.6,0.6-0.9
				c0.2-0.3,0.4-0.6,0.5-0.9c0.2-0.3,0.3-0.6,0.5-1c0.1-0.3,0.3-0.6,0.4-0.9c0.1-0.3,0.2-0.6,0.4-1c0.1-0.3,0.3-0.7,0.4-1
				c0.1-0.3,0.2-0.6,0.2-1c0.1-0.4,0.2-0.7,0.3-1.1c0.1-0.4,0.1-0.8,0.2-1.1c0-0.3,0.1-0.6,0.1-0.9c0.1-1.4,0.1-2.8,0-4.2
				c0-0.3-0.1-0.6-0.1-0.9c-0.1-0.4-0.1-0.8-0.2-1.1c-0.1-0.4-0.2-0.7-0.3-1.1c-0.1-0.3-0.2-0.6-0.2-1c-0.1-0.3-0.2-0.7-0.4-1
				c-0.1-0.3-0.2-0.6-0.4-1c-0.1-0.3-0.3-0.6-0.4-0.9c-0.2-0.3-0.3-0.7-0.5-1c-0.2-0.3-0.3-0.6-0.5-0.9c-0.2-0.3-0.4-0.6-0.6-0.9
				c-0.2-0.3-0.4-0.6-0.7-0.9c-0.2-0.3-0.4-0.5-0.6-0.8c-0.4-0.5-0.9-1.1-1.4-1.6c0,0,0,0,0,0l-64-64c-8.3-8.3-21.8-8.3-30.2,0
				c-8.3,8.3-8.3,21.8,0,30.2l27.6,27.6H321c-11.8,0-21.3,9.6-21.3,21.3S309.2,257,321,257h119.2l-27.6,27.6
				c-8.3,8.3-8.3,21.8,0,30.2c8.3,8.3,21.8,8.3,30.2,0l64-64c0,0,0,0,0,0C507.3,250.3,507.7,249.7,508.2,249.2z"/>
			<path class="st1" d="M363.7,299.7c-11.8,0-21.3,9.6-21.3,21.3v106.7H257V86.3v0c0-9.4-6.2-17.7-15.2-20.4l-74.1-22.2h174.6v106.7
				c0,11.8,9.6,21.3,21.3,21.3s21.3-9.6,21.3-21.3v-128C385,10.6,375.5,1,363.7,1H22.4c0,0,0,0,0,0c-0.6,0-1.3,0-1.9,0.1
				C10.7,1.8,4.3,8.3,2,15.9c-0.1,0.5-0.3,1-0.4,1.5c0,0.1,0,0.1,0,0.2c-0.1,0.5-0.2,1-0.3,1.5c0,0.1,0,0.1,0,0.2
				c-0.1,0.5-0.1,1-0.2,1.4C1,21.6,1,22.4,1,23.2V449c0,10.2,7.2,18.9,17.1,20.9l213.3,42.7c13.2,2.6,25.5-7.5,25.5-20.9v-21.3
				h106.7c11.8,0,21.3-9.6,21.3-21.3V321C385,309.2,375.5,299.7,363.7,299.7z M214.4,465.7L43.7,431.5V51l170.7,51.2V449
				L214.4,465.7L214.4,465.7z"/>
		</g>
	</g>
</g>
</svg>
