<?xml version="1.0" encoding="utf-8"?>
<!-- Generator: Adobe Illustrator 24.1.0, SVG Export Plug-In . SVG Version: 6.00 Build 0)  -->
<svg version="1.1" id="Capa_1" xmlns="http://www.w3.org/2000/svg" xmlns:xlink="http://www.w3.org/1999/xlink" x="0px" y="0px"
	 viewBox="0 0 490.7 490.7" style="enable-background:new 0 0 490.7 490.7;" xml:space="preserve">
<style type="text/css">
	.st0{opacity:0.78;}
	.st1{fill:#FFFFFF;}
</style>
<g class="st0">
	<g>
		<circle class="st1" cx="245.3" cy="160" r="74.7"/>
	</g>
</g>
<g class="st0">
	<g>
		<circle class="st1" cx="394.7" cy="224" r="53.3"/>
	</g>
</g>
<g class="st0">
	<g>
		<circle class="st1" cx="97.5" cy="224" r="53.3"/>
	</g>
</g>
<g class="st0">
	<g>
		<path class="st1" d="M245.3,256c-76.5,0-138.7,62.2-138.7,138.7c0,5.9,4.8,10.7,10.7,10.7h256c5.9,0,10.7-4.8,10.7-10.7
			C384,318.2,321.8,256,245.3,256z"/>
	</g>
</g>
<g class="st0">
	<g>
		<path class="st1" d="M115.9,301c-6.5-1.4-13.2-2.3-19.9-2.3c-52.9,0-96,43.1-96,96c0,5.9,4.8,10.7,10.7,10.7h76.6
			c-1.2-3.3-2-6.9-2-10.7C85.3,359.7,96.8,327.3,115.9,301z"/>
	</g>
</g>
<g class="st0">
	<g>
		<path class="st1" d="M394.7,298.7c-6.7,0-13.4,0.9-19.9,2.3c19.1,26.4,30.6,58.7,30.6,93.7c0,3.8-0.8,7.3-2,10.7H480
			c5.9,0,10.7-4.8,10.7-10.7C490.7,341.7,447.6,298.7,394.7,298.7z"/>
	</g>
</g>
</svg>
